<?xml version="1.0" standalone="no"?>
<!DOCTYPE svg PUBLIC "-//W3C//DTD SVG 20010904//EN"
 "http://www.w3.org/TR/2001/REC-SVG-20010904/DTD/svg10.dtd">
<svg version="1.0" xmlns="http://www.w3.org/2000/svg"
 width="800.000000pt" height="440.000000pt" viewBox="0 0 800.000000 440.000000"
 preserveAspectRatio="xMidYMid meet">

<g transform="translate(0.000000,440.000000) scale(0.100000,-0.100000)"
fill="#000000" stroke="none">
<path d="M1 4200 l1 -199 29 15 c37 19 37 8 -1 -44 l-30 -42 0 -525 c0 -289 3
-525 6 -525 4 0 13 8 20 18 8 10 13 12 14 5 0 -7 -9 -18 -20 -25 -20 -13 -20
-24 -20 -1430 0 -1343 1 -1418 18 -1419 9 -1 35 -1 57 -1 l40 1 -32 -10 c-18
-5 -33 -12 -33 -14 0 -3 162 -5 360 -5 l360 0 1 53 c1 28 3 44 6 34 8 -30 19
-18 31 34 22 92 10 166 -14 97 l-12 -33 -1 45 c-1 64 25 242 48 328 20 76 22
79 181 278 74 94 79 104 70 129 -27 72 -5 188 61 319 l52 101 2 110 c3 178 22
354 45 423 14 39 38 80 64 109 l43 47 83 7 c77 7 85 9 107 38 14 17 34 31 45
31 11 0 22 8 25 20 3 11 9 20 14 20 4 0 16 13 25 30 14 22 21 27 31 19 7 -6
19 -9 27 -6 7 3 19 0 25 -6 9 -9 14 -8 21 2 7 12 12 12 34 -3 14 -9 26 -21 26
-26 0 -15 -30 -12 -31 3 0 6 -4 3 -9 -8 -5 -11 -9 -15 -9 -8 -1 8 -7 8 -26 0
-33 -16 -32 -29 3 -22 15 3 20 2 12 -1 -8 -4 -23 -15 -34 -26 -11 -10 -23 -18
-28 -18 -4 0 -8 -4 -8 -10 0 -5 18 -10 40 -10 28 0 40 4 40 14 0 8 7 17 16 20
23 9 27 8 20 -9 -4 -12 6 -15 64 -15 72 0 120 -14 120 -36 0 -7 -8 -15 -17
-17 -15 -4 -14 -5 3 -6 16 -1 21 -8 21 -28 0 -43 24 -155 39 -185 19 -37 18
-43 -11 -43 -14 0 -25 4 -25 9 0 5 -8 2 -18 -7 -10 -10 -21 -17 -24 -17 -3 0
-10 24 -17 54 -11 51 -43 97 -54 79 -3 -5 -7 -38 -8 -74 -2 -53 4 -82 38 -174
53 -146 61 -186 19 -100 -35 72 -49 84 -20 17 46 -106 56 -156 61 -320 5 -137
3 -173 -12 -220 -9 -32 -23 -66 -31 -76 -13 -18 -14 -18 -34 5 -11 13 -32 42
-45 65 -24 40 -25 43 -13 117 11 71 13 76 33 71 28 -7 51 16 65 64 16 60 11
113 -16 177 -15 33 -31 83 -38 110 -14 64 -22 75 -52 75 -53 0 -87 68 -61 123
9 18 19 52 23 75 6 41 6 42 -22 42 -16 -1 -40 -7 -54 -15 -14 -8 -33 -14 -44
-15 -15 0 -17 5 -13 29 5 24 3 30 -11 29 -9 0 -25 3 -34 7 -16 6 -18 0 -18
-67 0 -142 -26 -168 -111 -111 -21 14 -45 23 -54 20 -9 -4 -19 2 -25 13 -13
25 -40 26 -40 3 1 -25 27 -55 80 -91 47 -31 110 -90 110 -103 0 -4 -9 -29 -20
-55 -19 -44 -21 -46 -39 -30 -10 9 -34 44 -55 79 -20 35 -50 79 -66 98 l-30
34 11 -30 c13 -37 62 -124 103 -185 17 -25 30 -48 28 -52 -1 -5 7 -42 19 -84
19 -71 20 -77 4 -101 -18 -27 -17 -27 -190 -11 -25 2 -31 -1 -33 -20 -3 -17 2
-22 17 -22 12 0 52 -20 90 -44 61 -40 68 -47 64 -71 -3 -15 -17 -32 -34 -41
-24 -12 -29 -21 -29 -49 0 -43 16 -45 83 -10 36 20 56 24 82 19 27 -5 36 -3
41 10 6 15 8 15 19 -1 20 -29 34 -93 26 -116 -7 -20 -10 -18 -31 23 -29 57
-25 55 -52 36 -17 -12 -47 -16 -118 -16 -73 0 -106 -4 -134 -18 -20 -10 -33
-21 -30 -25 4 -4 2 -7 -5 -7 -9 0 -12 -9 -9 -25 8 -42 -9 -29 -57 42 -31 47
-45 78 -45 101 0 26 -4 33 -17 30 -52 -10 -4 -106 122 -248 92 -103 126 -155
132 -199 7 -55 -18 -63 -171 -55 -142 8 -181 -1 -224 -50 -32 -36 -61 -48 -86
-34 -13 7 -16 4 -15 -19 0 -15 4 -49 8 -75 5 -32 4 -57 -5 -77 -7 -17 -10 -31
-7 -31 3 0 0 -6 -6 -13 -6 -8 -8 -16 -5 -20 3 -3 -4 -3 -15 0 -17 4 -20 2 -15
-12 4 -10 1 -21 -7 -25 -11 -7 -10 -12 5 -29 16 -18 56 -26 56 -11 0 3 20 11
45 18 43 11 45 13 45 49 0 21 -7 65 -15 98 -8 33 -14 67 -14 75 0 19 43 -31
69 -80 24 -46 51 -70 127 -111 49 -26 62 -37 57 -52 -4 -12 12 -36 55 -80 l60
-62 676 -3 677 -2 -21 26 c-30 38 -19 41 25 8 l37 -29 1334 -3 c1218 -2 1333
-1 1333 14 0 33 -21 260 -27 284 -3 14 -8 19 -10 13 -12 -33 -22 -12 -52 102
-8 31 -15 40 -33 41 -36 1 -121 16 -143 24 -11 4 -59 13 -108 21 l-87 13 -39
101 c-22 55 -60 165 -85 245 -118 371 -172 530 -180 530 -7 0 -4 -25 11 -75 3
-10 -17 8 -44 40 -77 93 -228 223 -322 277 -55 33 -53 34 139 82 80 21 172 46
205 56 33 10 101 27 150 36 88 17 92 19 151 76 33 32 64 58 67 58 4 0 7 -15 8
-32 0 -18 3 -26 6 -18 3 8 13 23 22 34 15 17 16 17 22 -15 l6 -34 2 37 c1 47
21 62 21 16 0 -19 11 -49 25 -70 21 -31 33 -38 77 -46 80 -15 173 -10 195 10
15 13 117 58 133 58 2 0 -1 -5 -8 -12 -18 -18 -14 -46 8 -60 11 -7 20 -18 20
-25 0 -7 4 -13 10 -13 15 0 50 38 50 53 0 20 31 110 42 122 19 21 36 -26 38
-103 4 -177 2 -203 -16 -223 -29 -32 -8 -33 37 -3 53 36 78 70 89 119 9 42 -4
80 -43 122 -29 32 -14 40 24 13 54 -39 96 -145 109 -275 11 -110 30 -171 66
-211 20 -22 61 -37 69 -25 2 5 20 7 40 6 25 -2 45 -12 65 -33 16 -17 32 -27
35 -22 9 15 -65 123 -164 241 l-30 35 157 -61 c86 -34 198 -77 247 -95 50 -18
139 -57 200 -86 60 -30 115 -54 122 -54 21 0 71 -87 83 -144 14 -70 14 -182 0
-251 -12 -56 -7 -82 10 -55 5 8 12 37 16 64 6 49 7 50 20 24 8 -15 19 -59 26
-100 7 -40 15 -75 18 -78 3 -3 6 -18 7 -35 5 -95 17 -195 24 -195 22 0 16 154
-7 192 -4 6 -2 8 4 4 11 -6 82 -129 82 -141 0 -3 -3 -4 -8 -1 -4 2 -6 -13 -4
-34 3 -33 0 -41 -32 -65 -45 -34 -41 -42 8 -18 22 10 39 26 43 41 4 18 8 21
13 11 14 -26 60 -246 60 -288 0 -29 14 -70 43 -131 l42 -90 438 0 437 0 0
2200 0 2200 -1290 0 -1290 0 -1 -22 0 -23 -16 23 -15 22 -873 0 -872 0 -14
-27 c-23 -47 -23 -49 5 -24 14 14 26 21 26 17 0 -18 -53 -105 -63 -103 -15 3
-55 -71 -62 -115 -6 -34 -25 -55 -25 -27 0 26 51 160 84 217 l35 62 -84 0
c-94 0 -89 4 -100 -87 -4 -31 -2 -59 5 -72 6 -12 7 -21 2 -21 -13 0 -62 120
-62 153 l0 27 -755 0 c-497 0 -755 -3 -755 -10 0 -5 4 -10 9 -10 13 0 -3 -53
-17 -58 -7 -2 -12 4 -12 13 0 9 -5 13 -11 10 -6 -4 -8 -12 -6 -19 3 -7 -9 -12
-29 -13 -28 -1 -34 2 -34 18 0 10 5 19 10 19 6 0 10 8 8 17 -2 13 6 19 32 24
19 4 -19 7 -86 8 l-122 1 -22 -62 c-13 -35 -31 -71 -40 -81 -16 -17 -17 -16
-17 30 0 32 6 56 19 72 27 36 23 41 -34 41 -53 0 -53 -1 -88 -53 -19 -28 -33
-59 -32 -69 2 -9 -2 -19 -8 -23 -5 -3 -10 -13 -10 -21 0 -9 -7 -22 -15 -30
-11 -11 -15 -12 -15 -3 0 7 -6 4 -15 -7 -14 -18 -14 -17 -15 14 0 35 -10 41
-30 17 -20 -24 -33 -17 -16 7 9 12 16 28 16 34 0 7 16 35 35 64 19 29 35 56
35 61 0 5 -25 9 -55 9 -54 0 -54 0 -82 -47 -27 -46 -28 -47 -31 -20 -4 32 -10
34 -29 10 -13 -16 -14 -14 -8 21 9 53 -14 44 -35 -15 -16 -41 -28 -70 -67
-161 -24 -55 -37 -48 -28 15 5 28 9 85 9 125 l1 72 -60 0 c-34 0 -66 -5 -73
-12 -9 -9 -12 -9 -12 0 0 8 -16 12 -42 11 -31 0 -37 -3 -24 -8 13 -5 16 -10 9
-14 -6 -4 -18 0 -26 8 -13 13 -72 15 -417 15 l-401 0 2 -200z m1779 180 c0 -5
-4 -10 -10 -10 -5 0 -10 5 -10 10 0 6 5 10 10 10 6 0 10 -4 10 -10z m1540 -9
c0 -6 -4 -13 -10 -16 -5 -3 -10 1 -10 9 0 9 5 16 10 16 6 0 10 -4 10 -9z
m-2896 -17 c23 -22 20 -37 -4 -24 -11 6 -20 17 -20 25 0 19 5 19 24 -1z m1518
4 c-9 -9 -7 -14 5 -23 15 -11 14 -14 -5 -33 -24 -24 -31 -26 -50 -13 -12 7
-12 12 0 32 15 27 38 48 53 49 5 0 4 -5 -3 -12z m2588 -32 c-6 -19 -18 -40
-28 -48 -14 -12 -14 -10 1 12 9 13 17 34 17 46 0 11 3 24 7 27 13 14 15 -2 3
-37z m1970 -6 c-33 -41 -40 -47 -40 -30 0 13 61 82 68 76 2 -3 -10 -23 -28
-46z m-6120 30 c0 -5 -4 -10 -10 -10 -5 0 -10 5 -10 10 0 6 5 10 10 10 6 0 10
-4 10 -10z m490 -6 c0 -17 -22 -14 -28 4 -2 7 3 12 12 12 9 0 16 -7 16 -16z
m1145 -4 c7 -22 -19 -68 -29 -51 -4 6 -2 20 4 31 6 11 8 25 5 30 -3 6 -2 10 4
10 5 0 12 -9 16 -20z m-985 -25 c0 -26 -3 -33 -15 -29 -8 4 -15 12 -15 20 0
12 -4 12 -20 2 -15 -10 -18 -20 -15 -48 3 -21 1 -30 -4 -22 -7 11 -9 11 -14
-2 -8 -20 -33 -21 -40 -1 -4 8 6 27 23 44 17 16 30 34 30 41 0 11 34 28 58 29
7 1 12 -12 12 -34z m-115 5 c-3 -5 -11 -10 -16 -10 -6 0 -7 5 -4 10 3 6 11 10
16 10 6 0 7 -4 4 -10z m1665 6 c0 -11 -19 -15 -25 -6 -3 5 1 10 9 10 9 0 16
-2 16 -4z m-202 -28 c-3 -22 -51 -43 -70 -32 -12 8 11 34 28 34 8 0 14 5 14
10 0 6 7 10 16 10 10 0 14 -7 12 -22z m-1591 -10 c-3 -8 -6 -5 -6 6 -1 11 2
17 5 13 3 -3 4 -12 1 -19z m-457 -8 c0 -5 -5 -10 -11 -10 -5 0 -7 5 -4 10 3 6
8 10 11 10 2 0 4 -4 4 -10z m510 -5 c0 -8 -7 -15 -15 -15 -16 0 -20 12 -8 23
11 12 23 8 23 -8z m1028 4 c-2 -6 -8 -10 -13 -10 -5 0 -11 4 -13 10 -2 6 4 11
13 11 9 0 15 -5 13 -11z m-1818 -8 c0 -13 -29 -35 -37 -28 -7 8 15 37 28 37 5
0 9 -4 9 -9z m3740 -17 c0 -8 -4 -14 -10 -14 -5 0 -10 9 -10 21 0 11 5 17 10
14 6 -3 10 -13 10 -21z m-1865 -4 c4 -6 -6 -15 -22 -20 -15 -6 -43 -28 -62
-50 -30 -35 -72 -54 -71 -32 1 15 39 52 55 52 9 0 28 14 42 30 25 31 47 38 58
20z m2585 -28 c0 -29 -31 -68 -43 -55 -19 18 5 83 30 83 8 0 13 -12 13 -28z
m-2680 14 c0 -3 -4 -8 -10 -11 -5 -3 -10 -1 -10 4 0 6 5 11 10 11 6 0 10 -2
10 -4z m1378 -7 c-2 -6 -8 -10 -13 -10 -5 0 -11 4 -13 10 -2 6 4 11 13 11 9 0
15 -5 13 -11z m-2341 -49 c-4 -37 -17 -69 -17 -42 0 7 -9 12 -20 12 -25 0 -25
4 2 40 30 41 40 38 35 -10z m-437 20 c0 -5 -4 -10 -10 -10 -5 0 -10 5 -10 10
0 6 5 10 10 10 6 0 10 -4 10 -10z m1332 -12 c-7 -7 -12 -8 -12 -2 0 14 12 26
19 19 2 -3 -1 -11 -7 -17z m1478 7 c0 -3 -10 -25 -22 -50 -23 -44 -48 -60 -48
-30 0 8 7 15 16 15 8 0 12 5 9 10 -8 12 21 60 35 60 6 0 10 -2 10 -5z m-1510
-10 c0 -10 -39 -43 -44 -37 -11 10 -6 22 10 22 8 0 12 5 9 10 -3 6 1 10 9 10
9 0 16 -2 16 -5z m160 -3 c0 -10 -22 -32 -32 -32 -13 0 -9 28 5 33 19 8 27 8
27 -1z m-794 -59 c-13 -24 -15 -25 -16 -7 0 11 5 25 12 32 19 19 21 6 4 -25z
m-976 17 c0 -5 -5 -10 -11 -10 -5 0 -7 5 -4 10 3 6 8 10 11 10 2 0 4 -4 4 -10z
m420 -10 c0 -4 -7 -14 -16 -21 -14 -11 -18 -10 -30 5 -7 11 -11 22 -9 26 6 9
55 0 55 -10z m3665 -8 c-13 -11 -65 -33 -65 -27 0 2 12 11 28 19 30 17 52 21
37 8z m-1047 -20 c2 -7 -3 -12 -12 -12 -9 0 -16 7 -16 16 0 17 22 14 28 -4z
m1362 4 c0 -3 -4 -8 -10 -11 -5 -3 -10 -1 -10 4 0 6 5 11 10 11 6 0 10 -2 10
-4z m-90 -31 c0 -15 -18 -30 -27 -22 -2 3 -2 15 2 26 7 23 25 19 25 -4z
m-3313 -6 c2 -8 -4 -23 -12 -33 -12 -15 -18 -17 -27 -8 -9 9 -8 18 2 37 14 27
33 29 37 4z m133 -8 c0 -22 -16 -36 -24 -22 -8 12 3 41 15 41 5 0 9 -9 9 -19z
m-330 -11 c0 -5 -4 -10 -9 -10 -6 0 -13 5 -16 10 -3 6 1 10 9 10 9 0 16 -4 16
-10z m2574 -35 c-23 -36 -29 -24 -8 17 9 18 19 28 21 21 2 -6 -3 -23 -13 -38z
m546 35 c0 -5 -4 -10 -8 -10 -11 0 -93 -79 -110 -105 -6 -11 -16 -30 -22 -42
-14 -33 -26 -28 -24 9 2 25 14 43 51 76 26 24 57 52 67 63 21 20 46 25 46 9z
m-407 -15 c-3 -9 -8 -14 -10 -11 -3 3 -2 9 2 15 9 16 15 13 8 -4z m412 -36
c-28 -28 -59 -55 -70 -61 -11 -5 8 18 43 51 76 74 96 81 27 10z m602 29 c-3
-8 -6 -5 -6 6 -1 11 2 17 5 13 3 -3 4 -12 1 -19z m-3974 -3 c-3 -9 -8 -14 -10
-11 -3 3 -2 9 2 15 9 16 15 13 8 -4z m1347 -11 c0 -8 -7 -14 -15 -14 -15 0
-21 21 -9 33 10 9 24 -2 24 -19z m2212 4 c-7 -7 -12 -8 -12 -2 0 6 3 14 7 17
3 4 9 5 12 2 2 -3 -1 -11 -7 -17z m-3732 2 c0 -5 7 -10 15 -10 18 0 20 -27 3
-33 -14 -4 -37 21 -38 41 0 6 5 12 10 12 6 0 10 -4 10 -10z m668 -2 c-6 -16
-36 -34 -44 -25 -9 9 15 37 33 37 8 0 13 -5 11 -12z m-240 -13 c13 -4 21 -12
19 -18 -7 -21 -25 -18 -53 8 -30 27 -28 28 34 10z m1472 5 c0 -5 -7 -10 -16
-10 -8 0 -12 5 -9 10 3 6 10 10 16 10 5 0 9 -4 9 -10z m1381 -43 l-34 -32 28
38 c15 21 30 35 33 32 3 -3 -9 -20 -27 -38z m-1197 25 c6 -10 -22 -47 -30 -40
-3 4 -3 16 1 27 6 21 20 27 29 13z m306 -27 c-14 -17 -30 -20 -30 -5 0 6 7 10
15 10 8 0 15 8 16 18 0 11 2 12 6 4 3 -7 -1 -19 -7 -27z m147 19 c3 -8 0 -27
-7 -42 -11 -26 -12 -26 -26 -7 -22 29 -18 65 6 65 11 0 23 -7 27 -16z m823 -3
c0 -6 -4 -13 -10 -16 -5 -3 -10 1 -10 9 0 9 5 16 10 16 6 0 10 -4 10 -9z
m-2780 -16 c0 -8 -7 -15 -15 -15 -16 0 -20 12 -8 23 11 12 23 8 23 -8z m350 5
c0 -5 -7 -10 -16 -10 -8 0 -12 5 -9 10 3 6 10 10 16 10 5 0 9 -4 9 -10z m1994
-37 c-4 -27 -11 -52 -15 -57 -5 -6 -9 -23 -9 -40 0 -22 -3 -27 -11 -19 -8 8
-8 24 0 60 6 26 13 60 16 76 9 47 25 30 19 -20z m-2938 21 c-3 -9 -6 -22 -6
-30 0 -8 -4 -14 -10 -14 -5 0 -10 14 -10 30 0 21 5 30 16 30 11 0 14 -5 10
-16z m136 -6 c-7 -7 -12 -8 -12 -2 0 14 12 26 19 19 2 -3 -1 -11 -7 -17z
m2208 12 c0 -5 -2 -10 -4 -10 -3 0 -8 5 -11 10 -3 6 -1 10 4 10 6 0 11 -4 11
-10z m-1692 -18 c5 -15 -14 -16 -23 -2 -4 6 -12 4 -22 -5 -8 -9 -18 -13 -22
-10 -9 10 27 33 47 31 9 -2 18 -8 20 -14z m2062 3 c0 -8 -4 -15 -10 -15 -5 0
-10 7 -10 15 0 8 5 15 10 15 6 0 10 -7 10 -15z m250 -39 c-9 -32 -9 -53 -2
-78 6 -18 11 -64 11 -103 0 -64 -1 -68 -13 -46 -8 14 -12 31 -9 38 8 19 -14
16 -27 -4 -10 -15 -10 -14 -5 7 3 14 8 52 11 85 5 62 32 160 41 151 3 -3 0
-25 -7 -50z m-2422 26 c2 -7 -3 -12 -12 -12 -9 0 -16 7 -16 16 0 17 22 14 28
-4z m2312 -8 c0 -8 -4 -12 -10 -9 -5 3 -10 13 -10 21 0 8 5 12 10 9 6 -3 10
-13 10 -21z m-3231 -23 c-15 -5 -22 6 -14 19 6 9 10 9 16 -1 5 -8 4 -15 -2
-18z m2431 19 c0 -5 -4 -10 -10 -10 -5 0 -10 5 -10 10 0 6 5 10 10 10 6 0 10
-4 10 -10z m385 0 c3 -5 1 -10 -4 -10 -6 0 -11 5 -11 10 0 6 2 10 4 10 3 0 8
-4 11 -10z m155 0 c0 -5 -2 -10 -4 -10 -3 0 -8 5 -11 10 -3 6 -1 10 4 10 6 0
11 -4 11 -10z m3350 1 c0 -6 -4 -13 -10 -16 -5 -3 -10 1 -10 9 0 9 5 16 10 16
6 0 10 -4 10 -9z m-6000 -5 c0 -3 -4 -8 -10 -11 -5 -3 -10 -1 -10 4 0 6 5 11
10 11 6 0 10 -2 10 -4z m2260 -6 c0 -5 -2 -10 -4 -10 -3 0 -8 5 -11 10 -3 6
-1 10 4 10 6 0 11 -4 11 -10z m-1575 -19 c-3 -6 -11 -11 -17 -11 -6 0 -6 6 2
15 14 17 26 13 15 -4z m254 -7 c-15 -18 -39 -18 -39 0 0 16 19 25 38 18 9 -3
10 -8 1 -18z m-1034 6 c-3 -5 -10 -10 -16 -10 -5 0 -9 5 -9 10 0 6 7 10 16 10
8 0 12 -4 9 -10z m1705 0 c0 -5 -2 -10 -4 -10 -3 0 -8 5 -11 10 -3 6 -1 10 4
10 6 0 11 -4 11 -10z m850 0 c0 -5 -5 -10 -11 -10 -5 0 -7 5 -4 10 3 6 8 10
11 10 2 0 4 -4 4 -10z m-2824 -129 c-29 -29 -37 -11 -11 26 9 12 15 26 14 30
-1 4 2 22 7 38 9 28 9 27 12 -19 3 -42 -1 -53 -22 -75z m1898 110 c3 -4 -3
-16 -14 -26 -19 -17 -20 -17 -20 2 0 29 22 45 34 24z m1029 -7 c24 -15 11 -23
-33 -19 -23 1 -36 8 -38 19 -3 12 4 15 25 14 15 -1 36 -7 46 -14z m42 6 c3 -5
1 -10 -4 -10 -6 0 -11 5 -11 10 0 6 2 10 4 10 3 0 8 -4 11 -10z m-2515 -9 c0
-14 -18 -23 -30 -16 -6 4 -8 11 -5 16 8 12 35 12 35 0z m320 -11 c0 -5 -4 -10
-10 -10 -5 0 -10 5 -10 10 0 6 5 10 10 10 6 0 10 -4 10 -10z m260 -4 c0 -8 -4
-17 -9 -21 -12 -7 -24 12 -16 25 9 15 25 12 25 -4z m100 -11 c0 -16 -6 -25
-15 -25 -18 0 -18 5 -5 31 14 26 20 24 20 -6z m118 -3 c2 -7 -3 -12 -12 -12
-9 0 -16 7 -16 16 0 17 22 14 28 -4z m-188 -16 c0 -14 -28 -42 -35 -34 -2 2
-2 14 2 26 6 24 33 31 33 8z m2680 4 c0 -5 -4 -10 -10 -10 -5 0 -10 5 -10 10
0 6 5 10 10 10 6 0 10 -4 10 -10z m-3280 -40 c15 -36 3 -61 -17 -35 -7 11 -13
27 -13 37 0 20 -15 24 -25 8 -4 -6 -11 -7 -17 -4 -16 10 19 33 42 27 10 -3 24
-18 30 -33z m450 31 c0 -6 -4 -13 -10 -16 -5 -3 -10 1 -10 9 0 9 5 16 10 16 6
0 10 -4 10 -9z m2060 0 c0 -5 -7 -11 -15 -15 -15 -5 -20 5 -8 17 9 10 23 9 23
-2z m130 -6 c0 -8 -4 -15 -9 -15 -13 0 -22 16 -14 24 11 11 23 6 23 -9z m1155
-21 c-22 -20 -57 -51 -77 -71 -21 -19 -42 -32 -48 -28 -16 10 -11 45 8 51 36
12 122 57 133 70 6 8 14 14 18 14 3 0 -12 -17 -34 -36z m365 16 c0 -5 -2 -10
-4 -10 -3 0 -8 5 -11 10 -3 6 -1 10 4 10 6 0 11 -4 11 -10z m-4039 -33 c9 -35
-8 -36 -21 -1 -13 33 -13 37 2 32 7 -3 15 -16 19 -31z m211 -19 c6 -52 0 -60
-20 -27 -10 15 -11 24 -3 32 6 6 11 20 11 31 0 34 7 13 12 -36z m333 22 c-5
-8 -11 -8 -17 -2 -6 6 -7 16 -3 22 5 8 11 8 17 2 6 -6 7 -16 3 -22z m105 20
c0 -5 -4 -10 -10 -10 -5 0 -10 5 -10 10 0 6 5 10 10 10 6 0 10 -4 10 -10z
m170 0 c0 -5 -2 -10 -4 -10 -3 0 -8 5 -11 10 -3 6 -1 10 4 10 6 0 11 -4 11
-10z m1365 -10 c-3 -5 -10 -10 -16 -10 -5 0 -9 5 -9 10 0 6 7 10 16 10 8 0 12
-4 9 -10z m135 -21 c0 -5 -4 -9 -10 -9 -5 0 -10 7 -10 16 0 8 5 12 10 9 6 -3
10 -10 10 -16z m-1915 -15 c-20 -17 -26 -27 -17 -30 6 -3 12 -10 12 -15 0 -6
-4 -8 -9 -4 -5 3 -12 -3 -16 -14 -7 -23 -43 -56 -51 -48 -4 4 -2 13 5 20 6 8
9 21 6 28 -7 20 50 84 77 86 21 2 20 0 -7 -23z m540 -4 c-3 -5 -11 -10 -16
-10 -6 0 -7 5 -4 10 3 6 11 10 16 10 6 0 7 -4 4 -10z m77 -22 c-7 -7 -12 -8
-12 -2 0 14 12 26 19 19 2 -3 -1 -11 -7 -17z m-1082 -2 c0 -8 -4 -17 -9 -21
-12 -7 -24 12 -16 25 9 15 25 12 25 -4z m726 -13 c-10 -10 -19 5 -10 18 6 11
8 11 12 0 2 -7 1 -15 -2 -18z m1159 17 c-3 -5 -10 -10 -16 -10 -5 0 -9 5 -9
10 0 6 7 10 16 10 8 0 12 -4 9 -10z m2245 -86 c-8 -50 -35 -92 -50 -78 -2 3 1
9 8 13 7 4 15 30 18 57 2 27 7 63 10 79 12 56 24 -8 14 -71z m-4526 62 c-3 -9
-10 -16 -15 -16 -5 0 -4 9 3 20 14 22 21 20 12 -4z m2066 10 c0 -3 -4 -8 -10
-11 -5 -3 -10 -1 -10 4 0 6 5 11 10 11 6 0 10 -2 10 -4z m-530 -26 c0 -5 -2
-10 -4 -10 -3 0 -8 5 -11 10 -3 6 -1 10 4 10 6 0 11 -4 11 -10z m-888 -46 c-7
-31 -11 -35 -17 -21 -7 18 11 75 21 65 2 -3 0 -23 -4 -44z m-695 30 c-3 -3
-12 -4 -19 -1 -8 3 -5 6 6 6 11 1 17 -2 13 -5z m623 -4 c0 -5 -4 -10 -10 -10
-5 0 -10 5 -10 10 0 6 5 10 10 10 6 0 10 -4 10 -10z m1885 0 c3 -5 -1 -10 -10
-10 -9 0 -13 5 -10 10 3 6 8 10 10 10 2 0 7 -4 10 -10z m255 5 c0 -8 -52 -85
-57 -85 -11 0 10 66 25 78 16 12 32 16 32 7z m-2362 -18 c12 -14 7 -24 -20
-46 -15 -11 -21 -11 -33 -1 -21 18 -19 33 8 46 30 16 33 16 45 1z m-424 -13
c4 -10 1 -14 -6 -12 -15 5 -23 28 -10 28 5 0 13 -7 16 -16z m4392 -21 c-18
-33 -21 -26 -6 13 6 15 13 24 16 21 3 -3 -1 -18 -10 -34z m-3172 10 c4 -9 1
-20 -6 -25 -10 -5 -8 -8 5 -8 14 0 18 -6 15 -27 -2 -21 -14 -34 -45 -51 -29
-16 -45 -32 -49 -50 -10 -46 -14 -53 -24 -47 -13 8 -13 51 1 76 5 11 21 24 35
29 19 8 24 17 26 47 0 21 2 43 3 48 2 6 3 13 4 18 2 14 29 7 35 -10z m2946
-33 c-30 -38 -50 -54 -34 -27 17 27 59 76 62 72 3 -2 -10 -22 -28 -45z m-1880
30 c0 -5 -4 -10 -10 -10 -5 0 -10 5 -10 10 0 6 5 10 10 10 6 0 10 -4 10 -10z
m746 -28 c-22 -5 -30 3 -21 18 5 8 11 7 22 -2 15 -12 14 -13 -1 -16z m-2526
-2 c12 -22 6 -40 -14 -40 -14 0 -38 45 -29 54 12 12 33 5 43 -14z m450 11 c0
-6 -4 -13 -10 -16 -5 -3 -10 1 -10 9 0 9 5 16 10 16 6 0 10 -4 10 -9z m190
-11 c0 -11 -7 -20 -15 -20 -17 0 -18 2 -9 24 9 23 24 20 24 -4z m1049 5 c22
13 54 -12 56 -43 3 -38 -2 -41 -15 -7 -5 14 -14 25 -19 25 -6 0 -3 -17 5 -37
13 -35 13 -36 -1 -18 -9 11 -22 19 -29 17 -7 -1 -25 13 -40 33 -20 25 -22 33
-10 28 12 -5 15 -3 9 6 -6 10 -3 11 14 2 12 -7 25 -9 30 -6z m-1649 -5 c0 -5
-5 -10 -11 -10 -5 0 -7 5 -4 10 3 6 8 10 11 10 2 0 4 -4 4 -10z m1381 -17 c-5
-10 -34 -45 -64 -78 -29 -33 -60 -71 -67 -85 -8 -15 -15 -20 -18 -12 -2 7 7
31 21 55 14 23 25 45 26 50 1 4 2 6 4 5 2 -2 25 16 52 39 56 48 60 50 46 26z
m-1701 -22 c3 -12 16 -27 29 -34 28 -14 64 -69 59 -90 -2 -11 -9 -11 -38 1
-19 8 -29 17 -22 19 15 6 6 23 -13 23 -8 0 -12 -6 -9 -14 3 -8 1 -17 -5 -21
-6 -3 -11 2 -11 13 0 10 -13 28 -30 40 -30 23 -42 59 -16 49 9 -4 16 3 20 19
8 30 28 27 36 -5z m430 19 c0 -5 -17 -10 -38 -10 -25 0 -43 -7 -55 -20 -9 -11
-24 -20 -32 -20 -27 0 -16 26 18 43 36 18 107 23 107 7z m660 0 c0 -5 -7 -10
-15 -10 -8 0 -15 5 -15 10 0 6 7 10 15 10 8 0 15 -4 15 -10z m1620 0 c0 -5 -5
-10 -11 -10 -5 0 -7 5 -4 10 3 6 8 10 11 10 2 0 4 -4 4 -10z m-2234 -28 c-8
-9 -19 -13 -22 -9 -10 9 16 38 28 31 6 -4 4 -13 -6 -22z m1399 -47 c-4 -54
-13 -52 -16 4 -3 35 -1 47 7 40 6 -5 10 -25 9 -44z m84 -23 c-1 -20 -3 -29 -6
-19 -3 11 -11 16 -19 13 -10 -4 -14 3 -14 27 0 18 -6 39 -12 47 -7 7 2 3 20
-9 27 -19 32 -28 31 -59z m603 46 c-7 -7 -12 -8 -12 -2 0 6 3 14 7 17 3 4 9 5
12 2 2 -3 -1 -11 -7 -17z m-2342 -8 c0 -5 -5 -10 -11 -10 -5 0 -7 5 -4 10 3 6
8 10 11 10 2 0 4 -4 4 -10z m1477 -7 c-5 -27 -33 -85 -51 -108 -15 -18 -15
-18 -10 -1 6 16 5 17 -15 6 -13 -6 -24 -10 -26 -8 -6 6 89 128 100 128 3 0 3
-8 2 -17z m100 -17 c-4 -9 -11 -16 -17 -16 -11 0 -14 33 -3 44 11 10 26 -11
20 -28z m1100 11 c-2 -7 0 -23 5 -37 6 -17 6 -22 -1 -15 -16 16 -27 80 -12 71
7 -4 10 -13 8 -19z m-2722 3 c-3 -5 -16 -10 -28 -10 -18 0 -19 2 -7 10 20 13
43 13 35 0z m935 6 c0 -3 -4 -8 -10 -11 -5 -3 -10 -1 -10 4 0 6 5 11 10 11 6
0 10 -2 10 -4z m-410 -21 c0 -8 8 -16 18 -16 16 -1 16 -2 0 -6 -9 -2 -20 -13
-23 -24 -7 -20 -20 -25 -29 -10 -8 12 14 71 25 71 5 0 9 -7 9 -15z m312 -17
c-9 -9 -15 -9 -24 0 -10 10 -10 15 2 22 9 6 19 5 24 0 7 -7 6 -14 -2 -22z
m528 23 c0 -14 -18 -23 -30 -16 -6 4 -8 11 -5 16 8 12 35 12 35 0z m-397 -18
c-7 -2 -19 -2 -25 0 -7 3 -2 5 12 5 14 0 19 -2 13 -5z m-1213 -24 c0 -11 -4
-18 -10 -14 -5 3 -7 12 -3 20 7 21 13 19 13 -6z m2738 3 c2 -7 -5 -12 -17 -12
-14 0 -19 5 -14 15 6 17 25 15 31 -3z m1399 -14 c-3 -8 -6 -5 -6 6 -1 11 2 17
5 13 3 -3 4 -12 1 -19z m-1491 -27 c-19 -19 -27 -12 -19 17 4 18 8 20 20 11
12 -11 12 -14 -1 -28z m-1366 20 c0 -5 -7 -14 -15 -21 -13 -10 -15 -9 -15 9 0
12 6 21 15 21 8 0 15 -4 15 -9z m553 3 c8 -8 -3 -34 -14 -34 -5 0 -9 9 -9 20
0 19 11 26 23 14z m1108 -17 c-13 -13 -26 -3 -16 12 3 6 11 8 17 5 6 -4 6 -10
-1 -17z m-2587 -8 c-3 -5 -10 -7 -15 -3 -5 3 -7 10 -3 15 3 5 10 7 15 3 5 -3
7 -10 3 -15z m1386 -49 c-28 -33 -54 -60 -56 -60 -9 0 -2 11 27 44 17 20 28
40 24 45 -5 10 46 43 54 35 2 -2 -20 -30 -49 -64z m310 37 c0 -18 -2 -19 -10
-7 -13 20 -13 43 0 35 6 -3 10 -16 10 -28z m1175 4 c-3 -6 -11 -8 -17 -5 -6 4
-5 9 3 15 16 10 23 4 14 -10z m-2529 -26 c-23 -17 -36 -19 -36 -6 0 5 8 12 18
14 32 9 37 6 18 -8z m2320 -12 c-10 -10 -19 5 -10 18 6 11 8 11 12 0 2 -7 1
-15 -2 -18z m-1026 13 c0 -3 -4 -8 -10 -11 -5 -3 -10 -1 -10 4 0 6 5 11 10 11
6 0 10 -2 10 -4z m1120 -31 c0 -14 -6 -25 -13 -25 -21 0 -27 11 -16 31 14 27
29 23 29 -6z m-1880 5 c0 -5 -4 -10 -10 -10 -5 0 -10 5 -10 10 0 6 5 10 10 10
6 0 10 -4 10 -10z m553 -9 c-5 -19 -31 -36 -40 -27 -3 2 0 14 7 25 14 27 40
28 33 2z m244 -13 c-3 -7 -5 -2 -5 12 0 14 2 19 5 13 2 -7 2 -19 0 -25z
m-1030 8 c-10 -8 -17 -23 -15 -34 4 -23 -22 -74 -36 -69 -5 2 -13 16 -17 31
-10 34 12 73 44 79 39 8 42 7 24 -7z m-997 -6 c0 -5 -4 -10 -10 -10 -5 0 -10
5 -10 10 0 6 5 10 10 10 6 0 10 -4 10 -10z m2287 -12 c-3 -8 -6 -5 -6 6 -1 11
2 17 5 13 3 -3 4 -12 1 -19z m883 15 c0 -5 -7 -16 -14 -26 -16 -20 -30 -8 -20
17 6 16 34 23 34 9z m-3283 -28 c-14 -29 -27 -33 -27 -7 0 22 8 32 26 32 9 0
10 -6 1 -25z m1169 -33 c-15 -15 -16 -14 -16 9 0 14 6 31 13 38 10 10 13 8 15
-10 2 -12 -3 -29 -12 -37z m-1216 18 c0 -16 -41 -33 -52 -22 -6 6 -7 15 -4 21
9 14 56 15 56 1z m2118 -38 c-20 -38 -38 -51 -26 -20 3 7 5 16 4 19 -1 9 36
50 41 45 2 -2 -6 -22 -19 -44z m-108 12 c0 -8 -4 -14 -10 -14 -5 0 -10 9 -10
21 0 11 5 17 10 14 6 -3 10 -13 10 -21z m-2080 7 c0 -12 -20 -25 -27 -18 -7 7
6 27 18 27 5 0 9 -4 9 -9z m1145 -11 c7 -21 0 -40 -16 -40 -5 0 -9 14 -9 30 0
34 15 40 25 10z m660 -4 c-12 -9 -16 -20 -12 -35 6 -23 -25 -61 -50 -61 -11 0
-11 4 -2 23 19 36 71 98 77 92 3 -3 -3 -11 -13 -19z m-1637 -18 c-2 -6 -10
-14 -16 -16 -7 -2 -10 2 -6 12 7 18 28 22 22 4z m1320 0 c-6 -18 -28 -21 -28
-4 0 9 7 16 16 16 9 0 14 -5 12 -12z m839 -10 c-3 -8 -6 -5 -6 6 -1 11 2 17 5
13 3 -3 4 -12 1 -19z m1003 1 c0 -5 -4 -9 -10 -9 -5 0 -10 7 -10 16 0 8 5 12
10 9 6 -3 10 -10 10 -16z m-1499 -40 c-27 -27 -31 -28 -31 -11 0 21 53 67 58
51 2 -5 -10 -23 -27 -40z m-1731 37 c0 -3 -4 -8 -10 -11 -5 -3 -10 -1 -10 4 0
6 5 11 10 11 6 0 10 -2 10 -4z m1570 -6 c0 -5 -4 -10 -10 -10 -5 0 -10 5 -10
10 0 6 5 10 10 10 6 0 10 -4 10 -10z m1540 0 c0 -6 10 -8 24 -4 18 4 25 1 29
-17 9 -32 1 -39 -36 -32 -40 7 -62 26 -54 47 7 18 37 22 37 6z m-1138 -22 c-7
-7 -12 -8 -12 -2 0 14 12 26 19 19 2 -3 -1 -11 -7 -17z m-732 -13 c-7 -9 -15
-13 -18 -10 -3 2 1 11 8 20 7 9 15 13 18 10 3 -2 -1 -11 -8 -20z m585 15 c-3
-6 -17 -10 -31 -10 -33 0 -24 15 11 18 15 1 24 -2 20 -8z m-954 -13 c-1 -12
-15 -9 -19 4 -3 6 1 10 8 8 6 -3 11 -8 11 -12z m217 -9 c-6 -18 -28 -21 -28
-4 0 9 7 16 16 16 9 0 14 -5 12 -12z m-1000 -20 c7 -7 12 -18 12 -26 0 -11
-13 -13 -60 -10 -33 2 -66 10 -72 16 -10 10 -7 12 12 10 14 -2 28 -7 31 -11 3
-4 17 1 30 12 28 24 31 25 47 9z m732 -34 c0 -8 -7 -14 -15 -14 -10 0 -15 10
-15 26 0 22 2 25 15 14 8 -7 15 -19 15 -26z m983 13 c13 -20 13 -26 1 -42 -12
-16 -17 -17 -39 -5 l-24 13 20 28 c11 16 22 29 24 29 1 0 9 -10 18 -23z m-760
-22 c1 -6 -13 -11 -30 -13 -37 -4 -45 14 -10 21 29 5 38 4 40 -8z m2277 -10
c0 -8 -4 -15 -10 -15 -5 0 -10 7 -10 15 0 8 5 15 10 15 6 0 10 -7 10 -15z
m-1890 -4 c0 -12 -20 -25 -27 -18 -7 7 6 27 18 27 5 0 9 -4 9 -9z m942 -33 c3
-18 8 -41 12 -50 6 -13 3 -15 -11 -12 -19 5 -48 54 -32 54 5 0 9 12 9 26 0 35
17 21 22 -18z m-1621 15 c-10 -18 -47 -53 -56 -53 -11 0 -4 19 16 44 24 30 56
37 40 9z m788 4 c-2 -2 -29 -23 -59 -47 -53 -44 -54 -44 -31 -12 23 33 81 76
90 67 2 -3 2 -6 0 -8z m1639 -18 c1 -34 -11 -29 -23 9 -4 15 -2 22 8 22 9 0
14 -11 15 -31z m-1584 -15 c9 -23 7 -31 -4 -14 -7 12 -12 11 -31 -5 -21 -19
-18 -5 6 22 14 17 22 16 29 -3z m151 6 c-3 -5 -10 -10 -16 -10 -5 0 -9 5 -9
10 0 6 7 10 16 10 8 0 12 -4 9 -10z m-85 -17 c-1 -11 -26 -43 -34 -43 -10 0
-7 25 6 38 13 13 28 16 28 5z m675 -20 c12 -18 14 -28 7 -31 -7 -2 -12 -10
-12 -17 0 -11 9 -11 48 -2 26 7 79 11 119 9 l72 -3 3 -37 c3 -37 3 -37 44 -34
38 3 42 1 49 -25 7 -27 18 -229 17 -287 -1 -15 -12 -47 -25 -70 -13 -22 -27
-53 -30 -67 -9 -36 -117 -142 -185 -181 -51 -29 -65 -33 -132 -32 -79 0 -120
14 -152 53 -10 12 -18 28 -18 36 0 8 -6 15 -14 15 -31 0 -94 91 -144 207 -51
121 -61 161 -48 201 6 17 15 22 42 22 19 0 34 4 34 9 0 10 90 48 103 43 5 -1
6 7 2 18 -9 29 10 25 34 -7 l20 -28 -9 35 c-5 20 -26 50 -50 72 l-41 36 47 31
c37 26 53 31 82 26 25 -3 31 -2 17 3 -17 8 -15 9 13 15 17 4 38 4 46 1 8 -3
17 -1 21 5 10 17 21 13 40 -16z m805 6 c0 -5 -7 -9 -15 -9 -15 0 -20 12 -9 23
8 8 24 -1 24 -14z m167 -4 c-4 -8 -14 -15 -23 -15 -16 0 -16 2 1 20 20 22 31
20 22 -5z m694 2 c-13 -13 -26 -3 -16 12 3 6 11 8 17 5 6 -4 6 -10 -1 -17z
m-3856 -25 c-3 -4 -10 0 -15 8 -6 9 -5 17 3 22 13 8 24 -19 12 -30z m1648 31
c-7 -2 -21 -2 -30 0 -10 3 -4 5 12 5 17 0 24 -2 18 -5z m337 -15 c0 -11 -32
-10 -50 2 -11 7 -6 9 17 7 18 -1 33 -5 33 -9z m-1566 -24 c9 -23 8 -24 -13
-24 -14 0 -18 5 -14 20 6 24 19 26 27 4z m56 6 c0 -5 -2 -10 -4 -10 -3 0 -8 5
-11 10 -3 6 -1 10 4 10 6 0 11 -4 11 -10z m335 -11 c-4 -5 -13 -9 -22 -9 -13
0 -13 3 -3 15 13 15 35 11 25 -6z m-545 1 c0 -5 -4 -10 -10 -10 -5 0 -10 5
-10 10 0 6 5 10 10 10 6 0 10 -4 10 -10z m2990 -44 c-25 -23 -37 -19 -26 9 3
8 16 15 28 15 l23 0 -25 -24z m-2760 -2 c0 -8 -4 -12 -10 -9 -5 3 -10 10 -10
16 0 5 5 9 10 9 6 0 10 -7 10 -16z m2790 -7 c0 -7 12 -18 28 -24 24 -10 25
-11 5 -12 -12 -1 -25 -5 -28 -11 -3 -5 -15 -10 -26 -10 -16 0 -18 5 -13 28 4
15 9 30 11 35 7 12 23 8 23 -6z m-2283 -44 c-9 -9 -19 -14 -22 -11 -3 3 2 13
11 22 9 9 19 14 22 11 3 -3 -2 -13 -11 -22z m128 17 c-3 -5 -11 -10 -16 -10
-6 0 -7 5 -4 10 3 6 11 10 16 10 6 0 7 -4 4 -10z m-345 -7 c-1 -5 -14 -24 -30
-43 -29 -33 -30 -33 -30 -10 0 26 26 60 47 60 7 0 13 -3 13 -7z m1105 -3 c-28
-12 -65 -12 -65 0 0 6 19 10 43 9 32 0 37 -2 22 -9z m45 -60 c-18 -11 -24 -6
-16 16 5 14 9 15 19 5 9 -9 9 -14 -3 -21z m1340 20 c0 -5 -7 -10 -16 -10 -8 0
-12 5 -9 10 3 6 10 10 16 10 5 0 9 -4 9 -10z m-2578 -32 c-15 -15 -26 -4 -18
18 5 13 9 15 18 6 9 -9 9 -15 0 -24z m875 5 c-3 -3 -11 -2 -17 2 -9 6 -9 10 1
16 14 8 27 -7 16 -18z m-517 -17 c-17 -22 -32 -9 -19 16 8 14 14 17 22 9 7 -7
6 -15 -3 -25z m347 2 c-3 -8 -6 -5 -6 6 -1 11 2 17 5 13 3 -3 4 -12 1 -19z
m1903 3 c-14 -27 -30 -35 -42 -23 -6 6 -2 15 13 26 31 21 42 20 29 -3z m-3541
-17 c3 -16 1 -17 -13 -5 -19 16 -21 34 -3 29 6 -3 14 -13 16 -24z m1758 0 c-9
-9 -28 6 -21 18 4 6 10 6 17 -1 6 -6 8 -13 4 -17z m1967 5 c-3 -5 -10 -7 -15
-3 -5 3 -7 10 -3 15 3 5 10 7 15 3 5 -3 7 -10 3 -15z m-3228 0 c10 -17 -9 -29
-35 -22 -23 6 -23 7 -6 20 23 16 32 16 41 2z m864 2 c0 -12 -20 -25 -27 -18
-7 7 6 27 18 27 5 0 9 -4 9 -9z m2320 -1 c0 -5 -5 -10 -11 -10 -5 0 -7 5 -4
10 3 6 8 10 11 10 2 0 4 -4 4 -10z m-3610 -15 c0 -8 -4 -15 -10 -15 -5 0 -10
7 -10 15 0 8 5 15 10 15 6 0 10 -7 10 -15z m1550 -5 c6 -11 9 -20 7 -20 -2 0
-12 9 -22 20 -10 11 -13 20 -7 20 6 0 16 -9 22 -20z m2135 0 c3 -5 -1 -10 -10
-10 -9 0 -13 5 -10 10 3 6 8 10 10 10 2 0 7 -4 10 -10z m255 0 c0 -5 -7 -10
-15 -10 -8 0 -15 5 -15 10 0 6 7 10 15 10 8 0 15 -4 15 -10z m-3060 -10 c0 -5
-4 -10 -10 -10 -5 0 -10 5 -10 10 0 6 5 10 10 10 6 0 10 -4 10 -10z m2600 -19
c0 -6 -4 -13 -10 -16 -5 -3 -10 1 -10 9 0 9 5 16 10 16 6 0 10 -4 10 -9z
m-1967 -15 c3 -8 -1 -17 -9 -20 -9 -4 -14 1 -14 14 0 23 15 27 23 6z m2437 4
c0 -5 -2 -10 -4 -10 -3 0 -8 5 -11 10 -3 6 -1 10 4 10 6 0 11 -4 11 -10z
m-3215 -41 c-4 -5 -16 -9 -28 -9 -20 0 -20 0 -2 14 21 15 40 12 30 -5z m240
-9 c4 -12 -1 -30 -12 -44 -21 -29 -32 -33 -34 -11 -1 8 -2 19 -3 25 -1 12 26
50 36 50 3 0 9 -9 13 -20z m2691 -4 c11 -45 1 -71 -28 -74 -26 -3 -28 -1 -28
35 0 59 43 89 56 39z m-2756 -11 c0 -8 -7 -15 -15 -15 -16 0 -20 12 -8 23 11
12 23 8 23 -8z m626 -41 c-15 -14 -16 -14 -16 0 0 9 6 25 13 37 l12 20 3 -21
c2 -11 -4 -27 -12 -36z m-1318 16 c7 -12 10 -25 7 -30 -4 -6 -2 -10 4 -10 5 0
11 6 14 13 3 8 8 9 16 1 15 -14 -20 -47 -46 -42 -13 2 -19 14 -21 46 -3 46 6
54 26 22z m171 -14 c32 -38 -20 -63 -53 -27 -14 16 -15 24 -6 40 12 23 34 18
59 -13z m890 8 c-15 -18 -22 -13 -13 10 3 9 10 13 16 10 5 -3 4 -12 -3 -20z
m202 3 c-10 -9 -11 -8 -5 6 3 10 9 15 12 12 3 -3 0 -11 -7 -18z m2038 -13 c-6
-7 -15 -11 -21 -8 -5 3 -4 12 3 20 6 7 15 11 21 8 5 -3 4 -12 -3 -20z m-2469
-18 c0 -11 -19 -15 -25 -6 -3 5 1 10 9 10 9 0 16 -2 16 -4z m-950 -20 c0 -8
-4 -17 -9 -21 -12 -7 -24 12 -16 25 9 15 25 12 25 -4z m741 -9 c-13 -13 -26
-3 -16 12 3 6 11 8 17 5 6 -4 6 -10 -1 -17z m629 14 c0 -5 -7 -12 -16 -15 -8
-3 -12 -11 -9 -17 5 -7 13 -5 24 5 10 9 21 16 24 16 10 0 8 -26 -4 -53 -8 -18
-16 -22 -40 -19 -16 2 -26 8 -23 13 3 5 1 9 -5 9 -5 0 -13 -5 -16 -10 -4 -6
-11 -8 -16 -5 -13 9 18 65 36 65 8 0 15 5 15 10 0 6 7 10 15 10 8 0 15 -4 15
-9z m-400 -17 c0 -8 -32 -33 -42 -34 -16 0 -7 29 10 33 27 7 32 7 32 1z m3880
-28 c0 -5 -7 -3 -15 4 -8 7 -12 17 -9 22 7 10 24 -9 24 -26z m-4200 -15 c-14
-27 -40 -27 -40 -1 0 12 9 24 23 29 26 10 32 0 17 -28z m-492 11 c2 -7 -3 -12
-12 -12 -9 0 -16 7 -16 16 0 17 22 14 28 -4z m2916 3 c-6 -16 -24 -21 -24 -7
0 11 11 22 21 22 5 0 6 -7 3 -15z m-1884 -10 c0 -8 -4 -15 -10 -15 -5 0 -10
-7 -10 -15 0 -8 -7 -15 -15 -15 -20 0 -19 15 2 40 21 24 33 26 33 5z m-301
-21 c-14 -18 -24 -11 -15 11 3 9 11 13 16 10 8 -5 7 -11 -1 -21z m82 -2 c-11
-16 -27 -35 -36 -42 -25 -20 -19 19 7 47 32 34 55 30 29 -5z m2770 17 c12 -6
18 -17 15 -25 -3 -8 1 -14 9 -14 19 0 19 -37 0 -73 -8 -15 -9 -25 -3 -21 5 4
14 0 19 -7 7 -11 13 -10 27 9 17 21 18 21 29 3 6 -10 9 -22 5 -26 -8 -8 -10
-65 -2 -65 9 1 40 27 40 34 0 3 -7 6 -15 6 -8 0 -15 4 -15 9 0 16 34 21 68 12
30 -9 47 2 20 12 -7 2 -10 8 -6 12 4 4 23 -2 43 -14 20 -11 42 -21 50 -21 21
0 48 -31 37 -42 -6 -6 -6 -25 -1 -46 10 -45 3 -54 -20 -23 l-18 23 1 -23 c1
-16 -5 -25 -19 -27 -11 -3 -22 -7 -25 -11 -19 -24 -40 -32 -58 -22 -15 8 -23
6 -37 -9 -10 -11 -14 -20 -9 -21 5 -1 20 -2 33 -2 37 -3 36 -22 -1 -22 -42 0
-64 13 -49 28 6 6 11 17 11 24 0 10 -5 11 -19 3 -28 -15 -33 -13 -29 13 2 17
8 21 30 19 36 -4 40 8 13 41 l-24 27 -21 -22 c-11 -12 -20 -24 -20 -27 0 -10
-61 -33 -68 -26 -4 4 3 15 16 25 20 17 21 20 6 28 -24 13 -8 35 16 22 23 -12
30 -13 30 0 0 5 -16 12 -35 16 -36 6 -48 30 -20 40 12 5 12 8 0 20 -7 8 -18
14 -24 14 -6 0 -11 5 -11 10 0 6 -5 10 -11 10 -7 0 -9 -12 -5 -35 4 -22 3 -35
-4 -35 -16 0 -12 -21 7 -35 21 -15 8 -38 -18 -30 -26 9 -43 -3 -29 -20 6 -7
12 -27 13 -44 1 -17 7 -30 12 -30 22 2 55 -14 55 -27 0 -19 -20 -29 -66 -30
-52 -2 -69 -11 -54 -29 11 -14 -3 -65 -18 -65 -12 0 -13 92 -1 107 7 7 6 14
-1 18 -17 11 -11 25 15 35 14 5 25 14 25 20 0 17 -31 24 -51 12 -23 -15 -32
-15 -24 -2 3 6 -3 10 -14 10 -12 0 -21 4 -21 9 0 15 29 33 45 27 9 -3 15 0 15
9 0 8 -9 15 -20 15 -11 0 -20 5 -20 10 0 6 7 10 15 10 8 0 15 7 15 15 0 12 -5
11 -30 -3 -31 -17 -40 -14 -53 23 -2 6 -14 1 -26 -9 -17 -16 -25 -17 -46 -8
-14 6 -25 18 -25 27 0 8 -1 18 -2 22 -2 5 4 8 12 8 8 0 33 8 54 18 26 12 43
14 51 7 8 -7 15 -3 23 15 10 21 19 25 54 25 35 1 40 3 25 11 -15 9 -16 13 -5
26 7 9 12 18 11 20 -7 9 -1 22 13 27 13 5 15 1 10 -19 -5 -19 0 -31 19 -49 14
-13 25 -30 25 -37 1 -8 8 2 16 21 9 20 13 49 10 68 -5 34 3 39 35 21z m-3221
-9 c0 -5 -7 -10 -15 -10 -8 0 -15 5 -15 10 0 6 7 10 15 10 8 0 15 -4 15 -10z
m180 0 c0 -5 -4 -10 -10 -10 -5 0 -10 5 -10 10 0 6 5 10 10 10 6 0 10 -4 10
-10z m558 -30 c-1 -20 -7 -32 -20 -35 -10 -4 -18 -11 -18 -16 0 -16 18 -10 47
17 l28 26 7 -34 c9 -46 -6 -61 -54 -53 -36 6 -38 6 -40 -22 0 -15 -2 -32 -3
-38 -2 -5 -3 -27 -4 -48 -1 -25 -5 -36 -12 -31 -6 3 -15 0 -20 -7 -13 -21 -11
-29 6 -23 19 8 32 -23 18 -45 -6 -9 -16 -16 -22 -16 -7 0 -18 -8 -25 -17 -16
-22 -32 -23 -40 -3 -8 22 -26 18 -26 -5 0 -13 7 -20 20 -20 27 0 25 -18 -2
-22 -13 -2 -29 -15 -36 -30 -14 -30 -26 -35 -38 -16 -5 7 -10 4 -16 -11 -4
-12 -13 -19 -19 -16 -5 4 -16 -1 -24 -11 -7 -11 -16 -16 -20 -12 -13 12 6 67
31 90 13 13 24 28 24 35 0 9 49 52 78 69 2 1 5 14 8 30 7 39 13 45 36 42 12
-2 26 6 36 20 15 24 15 24 -21 17 -21 -4 -37 -3 -37 2 0 12 60 73 71 73 5 0 9
7 9 15 0 17 -25 20 -35 5 -3 -5 -15 -10 -26 -10 -14 0 -18 4 -12 13 4 6 6 20
5 30 -2 12 3 17 20 17 13 0 43 16 68 35 25 18 48 34 52 34 4 1 6 -12 6 -29z
m-588 4 c0 -17 -22 -14 -28 4 -2 7 3 12 12 12 9 0 16 -7 16 -16z m760 -3 c0
-12 -20 -25 -27 -18 -7 7 6 27 18 27 5 0 9 -4 9 -9z m3434 -6 c22 -3 44 -9 50
-14 6 -4 20 -7 31 -5 71 9 90 14 93 24 6 17 20 11 51 -22 17 -18 31 -42 31
-54 0 -20 52 -79 62 -69 2 3 13 -5 24 -17 19 -21 19 -21 -1 -13 -44 17 -64 17
-85 -3 -21 -19 -24 -20 -55 -5 -18 9 -40 13 -49 10 -56 -22 44 -44 119 -27 33
7 51 8 59 0 5 -5 22 -10 36 -10 14 0 36 -9 49 -21 12 -12 25 -18 28 -15 14 14
40 -52 37 -90 -3 -21 -6 -71 -7 -111 -3 -72 -12 -93 -52 -123 -26 -20 -58 -33
-50 -20 4 6 -2 7 -18 1 -30 -12 -136 -11 -143 0 -3 5 -15 9 -27 9 -46 0 -93
21 -130 56 -41 40 -42 56 -3 30 32 -20 50 -21 42 0 -3 8 -2 12 4 9 6 -3 13 1
16 9 5 13 25 16 109 16 100 0 135 5 135 19 0 3 -42 6 -93 7 -68 0 -103 6 -137
20 l-44 20 78 18 c61 15 99 18 173 13 71 -5 94 -4 91 5 -3 7 -15 15 -29 18
-36 9 -212 2 -243 -9 -16 -7 -26 -7 -26 -1 0 13 -63 0 -72 -14 -3 -6 -21 -11
-39 -11 -27 0 -34 5 -40 29 -4 15 -17 35 -28 43 -12 8 -21 21 -21 28 0 8 -13
27 -30 42 -33 29 -69 126 -40 108 6 -4 10 8 10 29 0 19 4 37 9 40 4 3 11 20
15 37 6 29 8 31 38 25 18 -4 51 -9 72 -11z m-3404 -11 c0 -8 -5 -12 -10 -9 -6
4 -8 11 -5 16 9 14 15 11 15 -7z m2060 -14 c0 -5 -7 -10 -15 -10 -8 0 -15 5
-15 10 0 6 7 10 15 10 8 0 15 -4 15 -10z m-2670 -40 c30 -59 27 -73 -12 -65
-39 8 -52 18 -80 57 -23 33 -19 45 10 27 17 -10 23 -10 37 4 9 9 18 17 21 17
2 0 13 -18 24 -40z m2534 -3 c-7 -19 -20 -22 -29 -7 -9 15 16 43 27 32 5 -5 6
-16 2 -25z m76 10 c9 -3 4 -6 -12 -6 -21 -1 -26 3 -21 15 3 9 9 11 12 6 3 -5
13 -12 21 -15z m-2773 -60 c-14 -23 -37 -53 -51 -66 l-26 -24 0 35 c0 41 34
97 70 115 36 18 38 -6 7 -60z m731 50 c4 -20 -24 -57 -43 -57 -7 0 -18 -7 -25
-15 -15 -18 -44 -20 -34 -2 4 6 5 10 1 7 -3 -3 -6 -9 -8 -15 -1 -5 -17 -20
-36 -33 -33 -23 -63 -24 -63 -3 0 15 18 23 25 11 10 -16 22 -12 30 13 4 12 8
25 10 30 1 4 3 12 4 17 0 6 15 10 31 10 17 0 30 4 30 8 0 5 9 18 21 31 24 25
52 24 57 -2z m-824 -2 c-6 -16 -24 -21 -24 -7 0 11 11 22 21 22 5 0 6 -7 3
-15z m380 -20 c3 -8 1 -15 -4 -15 -5 0 -7 -7 -3 -16 3 -8 11 -13 19 -10 28 11
36 -21 20 -77 -16 -55 -40 -77 -60 -57 -14 14 -26 13 -26 -2 0 -7 -10 -29 -21
-48 l-21 -34 -21 28 c-19 26 -21 27 -28 10 -4 -10 -8 -31 -8 -46 -1 -17 -7
-28 -15 -28 -28 0 -36 73 -11 106 19 25 19 48 -1 65 -9 7 -20 22 -24 34 -7 16
-9 13 -9 -16 -1 -21 -10 -47 -20 -60 -20 -24 -20 -24 -35 -4 -30 39 -15 119
24 127 8 2 20 10 26 18 10 12 17 9 43 -19 17 -18 31 -42 31 -52 0 -33 20 -21
39 24 28 66 91 109 105 72z m2371 -15 c-3 -6 1 -13 9 -16 9 -3 16 -11 16 -16
0 -11 -30 -37 -42 -38 -10 0 -11 64 -1 73 10 11 25 8 18 -3z m-2085 -10 c0 -5
-5 -10 -11 -10 -5 0 -7 5 -4 10 3 6 8 10 11 10 2 0 4 -4 4 -10z m2990 -42 c0
-19 -18 -43 -25 -36 -9 9 4 48 16 48 5 0 9 -6 9 -12z m-2729 -29 c-9 -22 -10
-22 -10 -3 -1 11 2 24 6 27 12 12 14 0 4 -24z m56 9 c-3 -8 -6 -5 -6 6 -1 11
2 17 5 13 3 -3 4 -12 1 -19z m951 -51 c12 -39 22 -80 22 -90 0 -10 6 -20 14
-23 8 -3 17 -15 20 -27 3 -13 15 -33 26 -45 22 -23 46 -132 36 -159 -22 -58
-292 -60 -439 -4 -17 7 -34 24 -43 46 -14 34 -47 176 -42 180 2 1 31 7 66 13
75 13 167 62 249 132 32 27 60 49 63 49 3 1 15 -32 28 -72z m-1018 5 c0 -13
-12 -22 -22 -16 -10 6 -1 24 13 24 5 0 9 -4 9 -8z m-280 -22 c0 -5 -2 -10 -4
-10 -3 0 -8 5 -11 10 -3 6 -1 10 4 10 6 0 11 -4 11 -10z m2465 -30 c3 -5 1
-10 -4 -10 -6 0 -11 5 -11 10 0 6 2 10 4 10 3 0 8 -4 11 -10z m85 -20 c0 -5
-4 -10 -10 -10 -5 0 -10 5 -10 10 0 6 5 10 10 10 6 0 10 -4 10 -10z m440 -15
c0 -8 -4 -15 -10 -15 -5 0 -10 7 -10 15 0 8 5 15 10 15 6 0 10 -7 10 -15z m55
5 c3 -5 1 -10 -4 -10 -6 0 -11 5 -11 10 0 6 2 10 4 10 3 0 8 -4 11 -10z m-145
-17 c0 -23 -17 -49 -26 -41 -9 10 4 58 16 58 6 0 10 -8 10 -17z m-3175 -3 c-3
-5 -11 -10 -16 -10 -6 0 -7 5 -4 10 3 6 11 10 16 10 6 0 7 -4 4 -10z m2880 0
c-3 -5 -10 -10 -16 -10 -5 0 -9 5 -9 10 0 6 7 10 16 10 8 0 12 -4 9 -10z
m-2225 -20 c0 -5 -7 -7 -15 -4 -8 4 -15 8 -15 10 0 2 7 4 15 4 8 0 15 -4 15
-10z m27 -22 c-3 -8 -6 -5 -6 6 -1 11 2 17 5 13 3 -3 4 -12 1 -19z m53 12 c0
-5 -4 -10 -10 -10 -5 0 -10 5 -10 10 0 6 5 10 10 10 6 0 10 -4 10 -10z m2080
-18 c0 -4 -12 -20 -26 -35 -34 -37 -55 -21 -22 16 22 25 48 36 48 19z m-310
-63 c-12 -22 -30 -25 -30 -6 0 17 21 38 32 31 4 -3 3 -14 -2 -25z m223 1 c-3
-10 -11 -25 -19 -31 -11 -9 -14 -7 -14 13 0 27 7 38 26 38 7 0 10 -8 7 -20z
m247 10 c0 -14 -63 -80 -76 -80 -7 0 -10 13 -8 33 1 17 3 35 3 40 1 11 31 8
31 -3 0 -16 27 -12 34 5 6 17 16 20 16 5z m74 -19 c20 -22 14 -41 -14 -41 -24
0 -31 11 -23 38 7 27 15 28 37 3z m-3704 -11 c0 -5 -7 -10 -16 -10 -8 0 -12 5
-9 10 3 6 10 10 16 10 5 0 9 -4 9 -10z m3070 -21 c0 -14 -5 -19 -17 -17 -26 5
-29 38 -4 38 15 0 21 -6 21 -21z m-2964 -16 c-10 -10 -19 5 -10 18 6 11 8 11
12 0 2 -7 1 -15 -2 -18z m3097 -9 c-3 -8 -11 -14 -18 -14 -7 0 -18 -7 -25 -15
-7 -8 -16 -15 -21 -15 -16 0 -10 23 12 46 22 24 62 22 52 -2z m-79 1 c-4 -8
-10 -15 -15 -15 -5 0 -9 7 -9 15 0 8 7 15 15 15 9 0 12 -6 9 -15z m307 -28
c-16 -16 -26 0 -10 19 9 11 15 12 17 4 2 -6 -1 -17 -7 -23z m99 23 c0 -5 -5
-10 -11 -10 -5 0 -7 5 -4 10 3 6 8 10 11 10 2 0 4 -4 4 -10z m-585 -10 c3 -5
2 -10 -4 -10 -5 0 -13 5 -16 10 -3 6 -2 10 4 10 5 0 13 -4 16 -10z m-2834 -15
c0 -5 -9 -11 -21 -13 -20 -3 -27 8 -13 22 10 9 34 3 34 -9z m-204 -12 c2 -5
-5 -21 -16 -34 -14 -17 -23 -21 -31 -13 -8 8 -7 14 5 24 8 7 15 19 15 27 0 16
22 13 27 -4z m3144 4 c14 -1 37 -10 50 -20 13 -9 40 -25 59 -35 27 -13 35 -24
36 -44 1 -30 -13 -38 -22 -13 -4 8 -12 15 -19 15 -6 0 -30 13 -52 29 -23 16
-63 41 -89 56 -40 21 -43 25 -19 20 17 -4 42 -7 56 -8z m449 -22 c0 -8 -7 -15
-15 -15 -16 0 -20 12 -8 23 11 12 23 8 23 -8z m-80 -24 c-13 -26 -13 -31 5
-31 8 0 15 7 15 16 0 13 7 15 34 10 25 -5 35 -3 40 9 7 20 36 19 36 -1 0 -8
-4 -23 -10 -33 -8 -16 -4 -19 27 -24 20 -4 44 -2 54 3 30 17 46 11 52 -17 6
-34 -23 -68 -51 -59 -11 4 -23 2 -27 -4 -3 -5 -13 -10 -22 -10 -19 0 -53 -28
-53 -43 0 -6 8 -3 18 6 26 23 34 10 17 -24 -20 -38 -19 -49 5 -49 12 0 20 -7
20 -16 0 -9 -9 -18 -20 -21 -11 -3 -20 -11 -20 -19 0 -19 -21 -29 -30 -14 -10
17 -31 3 -23 -15 6 -17 -22 -21 -32 -5 -3 6 -1 10 4 10 6 0 11 5 11 11 0 7 8
18 18 25 16 13 16 13 -2 14 -10 0 -16 5 -13 13 21 51 21 50 0 39 -11 -6 -25
-18 -33 -26 -16 -20 -39 -20 -46 -1 -9 23 -23 18 -34 -11 -12 -30 -3 -51 13
-35 6 6 22 11 35 11 18 0 22 -4 17 -19 -3 -10 5 -36 18 -60 l24 -41 13 27 c10
21 14 24 17 11 2 -9 -8 -39 -23 -68 -24 -47 -28 -50 -44 -35 -9 8 -22 15 -28
15 -19 0 -14 -18 9 -31 17 -8 19 -13 8 -19 -16 -11 -23 -56 -9 -65 5 -3 10
-22 10 -42 0 -26 -5 -36 -19 -40 -11 -3 -22 -11 -25 -19 -4 -11 -10 -11 -38 0
-31 13 -33 18 -39 73 -3 32 -4 61 -2 66 2 4 22 7 43 7 31 0 38 3 34 15 -4 10
-10 12 -18 6 -6 -5 -23 -9 -38 -9 -25 0 -27 4 -33 57 -3 31 -8 71 -11 89 -3
23 -1 32 9 32 7 0 14 7 14 15 0 8 -4 15 -9 15 -4 0 -8 7 -8 15 0 8 7 15 15 15
8 0 15 -8 15 -17 0 -24 16 -4 24 30 4 16 2 27 -4 27 -19 0 -10 39 13 51 12 6
24 13 25 15 6 5 -32 64 -41 64 -5 0 -11 -9 -14 -19 -4 -16 -59 -38 -69 -29 -1
2 -5 20 -9 41 -6 33 -5 37 13 37 12 0 23 9 27 20 4 14 15 20 36 20 16 0 30 5
30 10 1 6 2 14 3 19 2 15 16 26 16 13 0 -17 35 -15 50 3 17 21 23 19 10 -4z
m450 -51 c0 -11 -7 -20 -15 -20 -15 0 -21 21 -8 33 12 13 23 7 23 -13z m-4050
1 c0 -12 -29 -23 -41 -15 -5 3 -7 10 -4 15 8 12 45 12 45 0z m2273 -8 c-13 -2
-33 -2 -45 0 -13 2 -3 4 22 4 25 0 35 -2 23 -4z m3129 -53 c9 -22 12 -38 7
-35 -5 4 -9 -6 -9 -21 0 -45 -18 -15 -26 44 -8 62 4 67 28 12z m-5479 23 c8
-7 -11 -33 -24 -33 -5 0 -9 9 -9 20 0 19 20 27 33 13z m107 -3 c0 -5 -6 -10
-14 -10 -8 0 -18 5 -21 10 -3 6 3 10 14 10 12 0 21 -4 21 -10z m-180 -10 c0
-5 -4 -10 -10 -10 -5 0 -10 -9 -10 -20 0 -11 -4 -20 -10 -20 -5 0 -12 -11 -16
-25 -3 -14 -10 -25 -14 -25 -14 0 -19 29 -7 42 7 7 18 25 24 41 12 26 43 38
43 17z m30 -39 c0 -5 -7 -11 -14 -14 -10 -4 -13 -1 -9 9 6 15 23 19 23 5z m40
-3 c0 -21 -13 -35 -40 -43 -25 -7 -25 -7 5 23 34 36 35 36 35 20z m2000 -58
c40 -41 39 -54 -5 -47 -19 3 -35 2 -35 -4 0 -18 -19 -8 -40 22 -24 33 -20 50
6 28 15 -12 16 -11 10 9 -11 34 28 29 64 -8z m50 5 c7 -9 10 -19 6 -22 -8 -9
-38 9 -44 25 -5 17 23 15 38 -3z m1496 -1 c-3 -9 -6 -27 -6 -42 0 -34 -15 -17
-23 26 -6 28 -4 32 14 32 15 0 19 -5 15 -16z m307 -14 c4 -16 0 -20 -19 -20
-23 0 -23 1 -6 19 9 11 18 20 18 20 1 1 4 -8 7 -19z m57 12 c0 -13 -12 -22
-22 -16 -10 6 -1 24 13 24 5 0 9 -4 9 -8z m-3850 -12 c0 -5 -4 -10 -10 -10 -5
0 -10 5 -10 10 0 6 5 10 10 10 6 0 10 -4 10 -10z m3868 -37 c-12 -14 -58 -18
-58 -5 0 15 10 19 39 18 22 -1 27 -4 19 -13z m-2205 -13 c4 0 5 6 2 13 -4 6 0
4 7 -5 8 -9 21 -18 28 -20 16 -3 43 -48 35 -56 -3 -3 -5 0 -5 6 0 7 -6 12 -14
12 -8 0 -23 8 -32 18 -17 16 -17 16 -11 0 8 -24 -4 -29 -28 -12 -10 8 -15 14
-9 14 5 0 3 4 -4 8 -7 5 -10 16 -6 26 5 12 10 14 17 7 6 -6 15 -11 20 -11z
m352 -20 c-11 -5 -29 -9 -40 -9 l-20 0 20 9 c11 5 29 9 40 9 l20 0 -20 -9z
m-228 -56 c-3 -3 -12 -4 -19 -1 -8 3 -5 6 6 6 11 1 17 -2 13 -5z m163 -84 c0
-6 -5 -19 -12 -29 -11 -17 -14 -18 -35 -4 -27 18 -29 31 -6 48 19 14 53 3 53
-15z m134 -49 c5 -7 25 -13 81 -26 6 -1 20 -3 32 -3 27 -2 59 -59 69 -120 7
-47 -8 -62 -33 -32 -10 12 -40 33 -68 47 -70 36 -145 86 -145 97 0 28 52 58
64 37z m276 -144 c25 -7 61 -24 80 -38 32 -24 74 -45 76 -37 0 2 8 -5 18 -14
10 -10 30 -18 45 -18 24 0 30 -5 35 -31 3 -17 6 -51 6 -76 l0 -44 -27 26 c-15
14 -33 25 -38 25 -16 0 -76 46 -69 52 3 3 -14 15 -38 26 -69 33 -118 51 -118
45 0 -3 -9 2 -20 12 -13 11 -18 25 -14 37 3 10 1 18 -5 18 -6 0 -11 7 -11 15
0 18 19 18 80 2z m405 -151 c39 -13 85 -28 104 -31 18 -3 46 -12 62 -21 16 -8
31 -14 34 -14 3 0 35 -14 71 -31 37 -18 73 -32 80 -32 8 0 19 -18 24 -39 9
-33 15 -38 40 -38 44 0 158 -49 180 -77 12 -16 20 -41 20 -64 0 -66 -45 -65
-190 4 -36 17 -73 32 -83 34 -10 2 -34 11 -55 21 -20 10 -66 29 -102 42 -36
13 -104 43 -152 67 -47 24 -91 43 -98 43 -6 0 -22 11 -35 25 -20 20 -25 34
-25 78 0 79 0 79 125 33z m1666 -243 c-12 -20 -14 -14 -5 12 4 9 9 14 11 11 3
-2 0 -13 -6 -23z m-640 -36 c20 -13 32 -15 59 -7 48 14 45 15 95 -31 l45 -42
-6 34 c-4 24 -2 30 4 19 15 -23 32 -126 32 -193 l0 -59 -37 7 c-21 4 -74 26
-118 49 -68 36 -83 50 -103 88 -27 53 -48 148 -39 173 7 17 8 17 25 -2 9 -11
28 -27 43 -36z m-129 11 c16 -12 73 -176 65 -185 -3 -2 -20 -6 -38 -9 -37 -6
-66 12 -88 54 -14 26 -18 123 -7 141 10 15 48 14 68 -1z m619 -12 c-8 -9 -6
-12 7 -11 9 0 24 5 31 10 10 5 12 4 7 -4 -5 -7 3 -13 23 -17 17 -4 29 -10 26
-14 -8 -12 49 -19 63 -8 6 6 12 18 13 27 0 9 17 -33 38 -94 22 -60 50 -142 64
-181 l25 -71 -67 13 c-36 7 -93 20 -126 28 -33 9 -73 18 -90 21 -62 8 -97 16
-148 33 -45 15 -55 23 -74 62 -44 86 -21 165 51 177 21 3 33 10 29 16 -4 6 0
8 10 4 9 -3 16 -3 16 1 -3 19 2 25 11 12 8 -13 13 -13 31 -2 17 11 20 11 14 0
-6 -10 -5 -10 5 -1 7 6 19 9 28 6 11 -5 13 -3 7 7 -5 9 -4 11 4 6 8 -6 9 -12
2 -20z m124 -26 c3 -5 1 -10 -4 -10 -6 0 -11 5 -11 10 0 6 2 10 4 10 3 0 8 -4
11 -10z m-898 -42 c-3 -7 -5 -2 -5 12 0 14 2 19 5 13 2 -7 2 -19 0 -25z m43 2
c0 -5 -4 -10 -10 -10 -5 0 -10 5 -10 10 0 6 5 10 10 10 6 0 10 -4 10 -10z
m-3380 -50 c0 -5 -4 -10 -10 -10 -5 0 -10 5 -10 10 0 6 5 10 10 10 6 0 10 -4
10 -10z m3333 -120 c-3 -11 -7 -20 -9 -20 -2 0 -4 9 -4 20 0 11 4 20 9 20 5 0
7 -9 4 -20z m-3023 -101 c0 -5 -4 -9 -10 -9 -5 0 -10 7 -10 16 0 8 5 12 10 9
6 -3 10 -10 10 -16z m-440 -363 c0 -11 -19 -15 -25 -6 -3 5 1 10 9 10 9 0 16
-2 16 -4z m158 -10 c3 -3 -25 -6 -62 -6 -43 0 -65 4 -61 10 6 10 112 6 123 -4z
m-353 -126 c3 -5 1 -10 -4 -10 -6 0 -11 5 -11 10 0 6 2 10 4 10 3 0 8 -4 11
-10z"/>
<path d="M2292 3570 c7 -11 16 -20 20 -20 5 0 3 9 -4 20 -7 11 -16 20 -20 20
-5 0 -3 -9 4 -20z"/>
<path d="M2508 2926 c-25 -18 -22 -29 3 -15 21 11 30 6 43 -26 2 -6 16 -3 35
7 17 10 33 13 36 7 8 -12 35 -12 35 1 0 32 -118 52 -152 26z"/>
<path d="M2272 2610 c3 -21 10 -27 46 -34 37 -8 47 -6 74 14 26 19 34 21 50
11 10 -6 23 -9 28 -6 37 23 -35 43 -77 22 -21 -11 -34 -12 -47 -5 -14 8 -24 8
-37 0 -15 -9 -20 -8 -29 6 -9 15 -10 13 -8 -8z"/>
<path d="M2320 2478 c-19 -10 -42 -18 -52 -18 -24 0 -23 -8 5 -35 12 -13 31
-35 41 -50 19 -27 20 -28 98 -22 78 5 144 31 120 46 -8 4 1 20 24 43 34 35 34
37 13 43 -12 4 -65 8 -118 9 -74 1 -104 -3 -131 -16z m182 -41 c-6 -7 -31 -18
-56 -26 -41 -12 -50 -11 -79 3 l-32 16 60 0 c33 0 67 5 75 10 23 15 45 13 32
-3z"/>
<path d="M3823 2413 c-15 -6 -17 -29 -3 -38 14 -9 49 17 43 32 -5 13 -18 15
-40 6z"/>
<path d="M4145 2310 c-3 -5 1 -10 9 -10 8 0 18 5 21 10 3 6 -1 10 -9 10 -8 0
-18 -4 -21 -10z"/>
<path d="M5205 2300 c3 -5 11 -10 16 -10 6 0 7 5 4 10 -3 6 -11 10 -16 10 -6
0 -7 -4 -4 -10z"/>
<path d="M5328 2233 c7 -3 16 -2 19 1 4 3 -2 6 -13 5 -11 0 -14 -3 -6 -6z"/>
<path d="M5401 2236 c2 -2 20 -6 39 -10 25 -4 31 -3 20 4 -14 9 -69 15 -59 6z"/>
<path d="M3786 1814 c-4 -10 -1 -14 6 -12 15 5 23 28 10 28 -5 0 -13 -7 -16
-16z"/>
<path d="M3945 1811 c-3 -5 -1 -12 5 -16 5 -3 10 1 10 9 0 18 -6 21 -15 7z"/>
<path d="M3980 1748 c-19 -5 -42 -12 -50 -15 -8 -3 -17 -6 -21 -5 -3 0 -10 -8
-17 -19 -14 -21 -3 -26 16 -7 7 7 29 13 49 15 20 1 43 9 52 17 20 21 13 25
-29 14z"/>
<path d="M3885 1591 c3 -5 1 -12 -5 -16 -14 -8 -13 -35 1 -35 20 0 39 33 27
47 -12 15 -32 18 -23 4z"/>
<path d="M3820 1521 c0 -6 5 -13 10 -16 6 -3 10 1 10 9 0 9 -4 16 -10 16 -5 0
-10 -4 -10 -9z"/>
<path d="M3976 1491 c-4 -7 -5 -15 -2 -18 9 -9 19 4 14 18 -4 11 -6 11 -12 0z"/>
<path d="M3860 1332 c0 -11 51 -35 58 -28 3 3 -1 12 -8 21 -13 16 -50 21 -50
7z"/>
<path d="M1096 4385 c4 -8 7 -15 9 -15 2 0 5 7 9 15 3 9 0 15 -9 15 -9 0 -12
-6 -9 -15z"/>
<path d="M1411 4374 c-17 -37 -9 -39 18 -4 15 21 18 30 8 30 -8 0 -19 -12 -26
-26z"/>
<path d="M1366 4255 c-9 -26 -7 -32 5 -12 6 10 9 21 6 23 -2 3 -7 -2 -11 -11z"/>
<path d="M1651 2193 c-7 -8 -17 -30 -21 -49 l-8 -33 34 26 c38 28 39 32 22 55
-12 15 -14 15 -27 1z"/>
<path d="M1951 1984 c0 -11 3 -14 6 -6 3 7 2 16 -1 19 -3 4 -6 -2 -5 -13z"/>
<path d="M4750 1542 c36 -32 67 -48 77 -39 5 6 -67 54 -95 64 -9 3 -1 -8 18
-25z"/>
<path d="M5826 1528 c-3 -13 -5 -50 -4 -83 1 -59 1 -59 8 20 8 83 7 103 -4 63z"/>
<path d="M5470 1471 c0 -6 4 -13 10 -16 6 -3 7 1 4 9 -7 18 -14 21 -14 7z"/>
<path d="M5521 1380 c7 -14 50 -77 98 -140 47 -63 87 -117 88 -119 2 -2 5 -2
7 0 3 2 -34 56 -82 119 -48 63 -95 126 -105 140 l-18 25 12 -25z"/>
<path d="M5811 1183 c1 -63 2 -65 10 -28 11 56 11 95 -1 95 -6 0 -10 -28 -9
-67z"/>
<path d="M1146 1165 c-7 -28 3 -54 30 -76 16 -13 17 -12 10 6 -4 11 -10 35
-13 53 -7 41 -19 49 -27 17z"/>
<path d="M5183 1070 c8 -38 26 -173 25 -192 -1 -21 -14 -24 -21 -5 -3 6 -6 2
-6 -11 -1 -16 -5 -21 -13 -16 -9 6 -9 3 0 -9 12 -14 11 -16 -7 -12 -29 5 -26
-3 3 -15 16 -6 24 -16 23 -28 -1 -16 -6 -18 -28 -12 -14 4 -32 4 -39 0 -8 -5
-3 -10 18 -15 17 -3 33 -13 36 -21 3 -8 14 -14 24 -14 20 0 46 -23 37 -32 -3
-3 5 -13 16 -24 21 -19 22 -19 16 1 -3 11 -8 47 -12 80 -8 72 -63 337 -72 345
-3 3 -3 -6 0 -20z"/>
<path d="M5970 1076 c0 -8 121 -78 126 -74 2 3 -22 21 -55 41 -57 36 -71 42
-71 33z"/>
<path d="M5777 740 c-8 -75 -9 -185 -2 -178 10 10 25 211 16 225 -5 10 -10 -6
-14 -47z"/>
<path d="M1150 761 c0 -4 -22 -33 -50 -62 -47 -51 -67 -85 -57 -95 2 -2 26 5
53 17 29 13 72 22 109 23 45 2 61 6 63 17 3 16 -57 69 -77 69 -6 0 -11 9 -11
20 0 11 -7 20 -15 20 -8 0 -15 -4 -15 -9z"/>
<path d="M916 631 c-4 -5 -3 -17 0 -26 5 -13 8 -14 15 -3 5 7 9 19 9 26 0 14
-16 16 -24 3z"/>
<path d="M6652 580 c0 -14 2 -19 5 -12 2 6 2 18 0 25 -3 6 -5 1 -5 -13z"/>
<path d="M6764 424 c-18 -14 -18 -15 4 -4 12 6 22 13 22 15 0 8 -5 6 -26 -11z"/>
<path d="M5746 328 c-18 -91 -26 -108 -51 -108 -13 0 -27 5 -30 10 -14 22 -22
-2 -17 -50 4 -40 2 -50 -11 -50 -8 0 -18 12 -23 28 -6 23 -8 24 -12 7 -7 -32
-61 -78 -84 -72 -11 3 -31 2 -44 -3 -15 -6 -26 -5 -30 2 -10 16 -36 -39 -29
-61 5 -17 26 -19 308 -26 375 -8 1273 -3 1283 8 5 4 3 16 -3 25 -8 13 -22 16
-52 14 -23 -2 -48 2 -56 8 -8 7 -27 9 -48 5 -21 -4 -47 -1 -72 9 -20 9 -46 16
-57 16 -15 0 -18 4 -13 18 13 30 11 57 -5 58 -8 1 -17 3 -20 4 -3 1 -15 4 -27
5 -17 2 -23 -3 -23 -16 0 -18 -12 -24 -35 -19 -5 1 -23 4 -40 6 -69 9 -125 29
-120 41 3 9 -7 13 -36 13 -22 0 -38 4 -35 9 7 11 -27 21 -74 21 -19 0 -72 9
-117 19 -57 13 -85 15 -92 8 -7 -7 -17 -7 -33 0 -13 7 -66 14 -118 18 -52 3
-101 7 -107 7 -7 1 -15 10 -19 20 -3 10 -12 18 -20 18 -8 0 -14 6 -14 14 0 30
-18 25 -24 -6z"/>
</g>
</svg>
